<svg xmlns="http://www.w3.org/2000/svg" viewBox="0 0 303.40 89.10" role="img" aria-label="JOGA">
  <g transform="translate(2.60,81.20)">
    <path d="M30.30 1.90Q22 1.90 15.95-1.25Q9.90-4.40 6.65-10.40Q3.40-16.40 3.40-25L3.40-28.70L19.60-28.70L19.60-24.10Q19.60-19.30 22.45-16.35Q25.30-13.40 30.30-13.40Q35.20-13.40 38.05-16.35Q40.90-19.30 40.90-24.10L40.90-58.70L11.90-58.70L11.90-73L57.30-73L57.30-25Q57.30-16.40 54.05-10.40Q50.80-4.40 44.75-1.25Q38.70 1.90 30.30 1.90M107.50 1.90Q97.60 1.90 90.25-1.55Q82.90-5 78.10-10.65Q73.30-16.30 70.95-22.90Q68.60-29.50 68.60-35.60L68.60-37.80Q68.60-44.60 71.05-51.25Q73.50-57.90 78.40-63.30Q83.30-68.70 90.60-71.95Q97.90-75.20 107.50-75.20Q117.10-75.20 124.40-71.95Q131.70-68.70 136.60-63.30Q141.50-57.90 144-51.25Q146.50-44.60 146.50-37.80L146.50-35.60Q146.50-29.50 144.10-22.90Q141.70-16.30 136.90-10.65Q132.10-5 124.75-1.55Q117.40 1.90 107.50 1.90M107.50-13.40Q112.70-13.40 116.85-15.20Q121-17 123.95-20.20Q126.90-23.40 128.40-27.60Q129.90-31.80 129.90-36.60Q129.90-41.70 128.35-45.95Q126.80-50.20 123.85-53.35Q120.90-56.50 116.80-58.20Q112.70-59.90 107.50-59.90Q102.30-59.90 98.20-58.20Q94.10-56.50 91.15-53.35Q88.20-50.20 86.70-45.95Q85.20-41.70 85.20-36.60Q85.20-31.80 86.70-27.60Q88.20-23.40 91.15-20.20Q94.10-17 98.20-15.20Q102.30-13.40 107.50-13.40M193.50 1.90Q183.70 1.90 176.40-1.35Q169.10-4.60 164.35-10.10Q159.60-15.60 157.30-22.30Q155-29 155-35.70L155-37.90Q155-44.80 157.30-51.40Q159.60-58 164.25-63.40Q168.90-68.80 175.85-72Q182.80-75.20 191.90-75.20Q201.80-75.20 209.40-71.55Q217-67.90 221.60-61.45Q226.20-55 226.90-46.50L210.50-46.50Q209.90-50.50 207.35-53.50Q204.80-56.50 200.85-58.20Q196.90-59.90 191.90-59.90Q187.10-59.90 183.35-58.20Q179.60-56.50 176.95-53.40Q174.30-50.30 172.95-46.05Q171.60-41.80 171.60-36.70Q171.60-31.40 173.05-27.05Q174.50-22.70 177.30-19.55Q180.10-16.40 184.25-14.70Q188.40-13 193.50-13Q200.30-13 205.30-15.80Q208.50-17.60 210.50-20.10L210.50-26.20L191.40-26.20L191.40-38L231.60-38L231.60-26.20L225.60-26.20L225.60-13.80Q220.90-6.20 212.65-2.15Q204.40 1.90 193.50 1.90" fill="#13171E"/>
    <path d="M230.50 0L252.50-72L272.80-72L294.80 0L280.80 0L262.50-59.20L244.50 0" fill="#13171E"/>
  </g>
</svg>
